<?xml version="1.0" standalone="no"?>
<!DOCTYPE svg PUBLIC "-//W3C//DTD SVG 20010904//EN"
 "http://www.w3.org/TR/2001/REC-SVG-20010904/DTD/svg10.dtd">
<svg version="1.0" xmlns="http://www.w3.org/2000/svg"
 width="500.000000pt" height="500.000000pt" viewBox="0 0 500.000000 500.000000"
 preserveAspectRatio="xMidYMid meet">

<g transform="translate(0.000000,500.000000) scale(0.100000,-0.100000)"
fill="#000000" stroke="none">
<path d="M1695 3939 c-156 -9 -193 -12 -260 -24 -75 -12 -86 -16 -80 -24 3 -5
-8 -12 -24 -16 -20 -4 -28 -11 -24 -21 3 -8 -1 -14 -11 -14 -20 0 -20 -22 -1
-60 15 -29 35 -40 35 -19 0 24 20 -4 26 -37 4 -20 13 -38 20 -41 8 -3 12 -9 9
-13 -3 -4 1 -8 8 -7 51 2 67 -4 67 -23 0 -13 7 -20 20 -20 12 0 20 -7 20 -16
0 -10 6 -14 14 -11 10 4 16 -2 18 -16 2 -15 11 -23 28 -26 24 -3 40 -17 40
-35 0 -4 -11 -1 -25 8 -14 9 -25 13 -25 8 0 -5 11 -14 25 -20 14 -6 25 -16 25
-22 0 -5 7 -10 16 -10 12 0 15 -6 11 -21 -4 -16 2 -25 24 -37 18 -11 29 -25
29 -39 0 -12 9 -28 19 -35 17 -12 18 -20 11 -54 -13 -55 -12 -62 9 -69 25 -8
33 -27 38 -97 3 -41 1 -58 -8 -58 -6 0 -9 -8 -6 -19 2 -10 1 -25 -4 -34 -6
-10 -4 -17 6 -21 11 -4 15 -20 14 -60 -1 -29 2 -60 7 -67 12 -19 12 -59 1 -59
-5 0 -7 -9 -4 -21 4 -16 3 -18 -8 -9 -11 9 -12 5 -3 -23 9 -30 8 -37 -9 -54
-15 -15 -20 -32 -18 -66 0 -27 -3 -45 -9 -44 -6 1 -12 -15 -14 -35 -2 -21 -7
-38 -13 -38 -5 0 -9 -9 -9 -21 0 -34 -80 -147 -112 -158 -15 -6 -28 -17 -28
-25 0 -9 -4 -16 -10 -16 -5 0 -10 5 -10 11 0 9 -16 -1 -77 -51 -7 -6 -18 -10
-26 -10 -8 0 -22 -9 -32 -20 -10 -11 -21 -18 -25 -15 -3 2 -21 -5 -38 -16 -20
-11 -51 -19 -77 -19 -38 0 -45 -3 -45 -19 0 -11 -13 -29 -30 -41 -16 -12 -33
-33 -36 -48 -6 -27 -14 -50 -39 -107 -8 -16 -22 -54 -32 -84 -11 -32 -25 -56
-35 -59 -16 -4 -18 -22 -18 -191 0 -155 3 -198 20 -258 42 -152 163 -299 300
-366 146 -72 150 -72 674 -72 367 0 470 3 474 13 2 6 12 12 22 12 9 0 23 7 30
15 7 8 23 15 35 15 13 0 25 7 29 15 3 8 12 15 20 15 26 0 44 42 49 118 3 40
11 80 19 89 11 14 10 15 -12 9 -21 -6 -22 -5 -7 4 20 13 23 36 5 43 -10 3 -10
8 1 21 16 19 21 41 24 97 1 20 8 43 15 51 6 8 14 40 16 71 2 31 13 76 25 100
12 24 21 48 21 54 0 6 7 16 15 23 8 7 12 16 9 21 -3 5 1 9 8 9 10 0 10 2 -1 9
-7 5 -9 10 -4 12 10 4 48 105 52 140 2 13 59 69 70 69 7 0 9 5 5 12 -5 8 -2 9
10 5 11 -5 15 -3 10 5 -5 8 -1 9 12 4 10 -4 15 -4 11 0 -4 4 -2 13 5 21 9 11
7 12 -8 7 -10 -4 -25 -12 -32 -17 -20 -16 -41 -18 -239 -24 -105 -3 -183 -1
-183 4 0 10 122 198 147 225 12 14 31 17 94 16 60 0 85 4 111 19 44 26 62 78
45 131 -11 34 -21 41 -135 98 -178 88 -247 162 -273 291 -30 148 55 304 204
373 46 21 88 32 141 37 73 6 96 16 59 26 -10 3 -3 5 14 6 31 1 32 2 21 26 -6
13 -18 26 -27 28 -14 4 -13 5 2 6 9 0 17 6 17 12 0 5 -4 8 -9 5 -27 -17 -50
24 -29 50 11 14 1 41 -18 48 -8 3 -14 10 -14 17 0 6 6 9 14 6 11 -4 13 3 12
31 -2 20 1 42 5 47 8 11 7 28 -4 55 -11 28 -2 125 11 123 7 -2 12 2 12 7 0 5
3 9 8 8 14 -3 62 14 62 23 0 12 -7 11 -30 -3 -10 -7 -22 -9 -26 -5 -9 9 -1 18
23 22 10 2 19 4 19 4 1 1 -2 17 -6 36 -8 34 -7 35 22 35 17 0 27 4 23 10 -4 6
-10 8 -15 5 -5 -3 -12 0 -16 6 -4 7 -3 9 3 6 6 -4 16 0 23 8 15 18 -2 45 -29
46 -12 0 -11 2 4 9 l20 9 -20 1 c-11 1 -33 1 -48 0 -15 -1 -33 3 -40 8 -7 5
-34 12 -62 15 -27 3 -81 10 -120 16 -158 22 -757 34 -1010 20z m845 -780 c0
-9 -23 -44 -108 -164 -15 -22 -31 -48 -35 -57 -5 -15 -19 -18 -87 -18 -54 0
-91 -5 -111 -16 -35 -18 -61 -70 -52 -105 8 -35 51 -77 92 -90 72 -23 174 -81
221 -125 71 -66 104 -147 104 -250 0 -71 -4 -90 -32 -146 -38 -79 -110 -149
-190 -186 -55 -26 -64 -27 -259 -30 -112 -2 -203 -1 -203 2 0 7 91 149 131
205 l31 43 72 -7 c141 -13 216 29 216 121 0 61 -28 87 -149 138 -150 63 -211
117 -252 225 -46 123 -5 293 90 373 41 36 127 76 181 87 67 13 340 13 340 0z"/>
<path d="M1240 3890 c-9 -6 -10 -10 -3 -10 6 0 15 5 18 10 8 12 4 12 -15 0z"/>
<path d="M1184 3843 c-15 -20 -23 -33 -16 -29 13 8 56 66 49 66 -3 0 -17 -17
-33 -37z"/>
<path d="M1685 3330 c3 -5 11 -10 16 -10 6 0 7 5 4 10 -3 6 -11 10 -16 10 -6
0 -7 -4 -4 -10z"/>
<path d="M3059 3023 c-12 -16 -12 -17 2 -6 9 7 20 9 24 5 5 -4 5 -1 1 6 -9 16
-11 15 -27 -5z"/>
<path d="M3021 2963 c-7 -16 -12 -29 -12 -30 2 -7 16 3 17 12 1 6 5 18 9 28
12 28 -1 19 -14 -10z"/>
<path d="M2794 2910 c-60 -24 -83 -108 -41 -155 24 -27 202 -109 221 -101 6 2
2 5 -9 5 -17 1 -18 3 -5 12 13 10 13 10 0 6 -13 -4 -16 6 -16 54 0 33 3 53 8
47 4 -7 6 3 3 22 -3 26 2 45 20 72 14 21 25 40 25 43 0 8 -183 4 -206 -5z"/>
</g>
</svg>
