<svg xmlns="http://www.w3.org/2000/svg" viewBox="0 0 533.5 544.3" width="24" height="24">
  <path fill="#4285f4" d="M533.5 278.4c0-17.4-1.5-34.1-4.4-50.2H272v95h147c-6.3 34.1-25 62.9-53.6 82.1v68h86.7c50.7-46.7 80.4-115.6 80.4-194.9z"/>
  <path fill="#34a853" d="M272 544.3c72.6 0 133.6-23.9 178.1-64.9l-86.7-68c-24.1 16.2-55 25.8-91.4 25.8-70.3 0-129.9-47.5-151.2-111.2H30.4v69.7C74.9 470.2 167.6 544.3 272 544.3z"/>
  <path fill="#fbbc05" d="M120.8 325.9c-5.6-16.2-8.8-33.4-8.8-51.3 0-17.9 3.2-35.1 8.8-51.3V153.6H30.4C10.9 193.7 0 237.6 0 282.6s10.9 88.9 30.4 129h90.4v-85.7z"/>
  <path fill="#ea4335" d="M272 109.1c39.5 0 74.8 13.6 102.7 40.4l77-77C405.4 24.1 344.6 0 272 0 167.6 0 74.9 74.1 30.4 153.6l90.4 69.7c21.3-63.7 80.9-111.2 151.2-111.2z"/>
</svg>
